<?xml version="1.0" encoding="UTF-8"?>
<svg width="800" height="400" viewBox="0 0 800 400" fill="none" xmlns="http://www.w3.org/2000/svg">
    <!-- Background with eco gradient -->
    <rect width="800" height="400" fill="url(#eco-gradient)"/>
    
    <!-- Family group silhouette -->
    <g transform="translate(200, 50)">
        <!-- Adult 1 -->
        <path d="M200,100 C220,100 235,85 235,65 C235,45 220,30 200,30 C180,30 165,45 165,65 C165,85 180,100 200,100 Z" fill="#4AE290"/>
        <path d="M165,110 L235,110 L250,300 L150,300 Z" fill="#4AE290"/>
        
        <!-- Adult 2 -->
        <path d="M300,100 C320,100 335,85 335,65 C335,45 320,30 300,30 C280,30 265,45 265,65 C265,85 280,100 300,100 Z" fill="#4AE290"/>
        <path d="M265,110 L335,110 L350,300 L250,300 Z" fill="#4AE290"/>
        
        <!-- Child -->
        <path d="M250,80 C265,80 275,70 275,55 C275,40 265,30 250,30 C235,30 225,40 225,55 C225,70 235,80 250,80 Z" fill="#4AE290"/>
        <path d="M225,90 L275,90 L285,250 L215,250 Z" fill="#4AE290"/>
    </g>
    
    <!-- Eco symbols -->
    <g transform="translate(50, 50)">
        <!-- Recycling symbol -->
        <path d="M50,50 L80,90 L20,90 Z" fill="#1A2332" stroke="#4AE290" stroke-width="2"/>
        <circle cx="50" cy="70" r="30" fill="none" stroke="#4AE290" stroke-width="2"/>
        
        <!-- Tree symbol -->
        <path d="M650,50 L680,100 L620,100 Z" fill="#1A2332" stroke="#4AE290" stroke-width="2"/>
        <rect x="645" y="100" width="10" height="30" fill="#4AE290"/>
        
        <!-- Solar panel -->
        <rect x="100" y="250" width="60" height="40" fill="#1A2332" stroke="#4AE290" stroke-width="2"/>
        <line x1="110" y1="250" x2="110" y2="290" stroke="#4AE290"/>
        <line x1="120" y1="250" x2="120" y2="290" stroke="#4AE290"/>
        <line x1="130" y1="250" x2="130" y2="290" stroke="#4AE290"/>
        <line x1="140" y1="250" x2="140" y2="290" stroke="#4AE290"/>
        <line x1="150" y1="250" x2="150" y2="290" stroke="#4AE290"/>
    </g>
    
    <!-- Gradient definition -->
    <defs>
        <linearGradient id="eco-gradient" x1="0" y1="0" x2="800" y2="400" gradientUnits="userSpaceOnUse">
            <stop offset="0%" style="stop-color:#0B1321"/>
            <stop offset="100%" style="stop-color:#1A2332"/>
        </linearGradient>
    </defs>
</svg>
