<?xml version="1.0" encoding="UTF-8"?>
<svg width="800" height="400" viewBox="0 0 800 400" xmlns="http://www.w3.org/2000/svg">
    <defs>
        <linearGradient id="bgGradient" x1="0%" y1="0%" x2="100%" y2="100%">
            <stop offset="0%" style="stop-color:#0B1321;stop-opacity:0.9"/>
            <stop offset="100%" style="stop-color:#1A2332;stop-opacity:0.9"/>
        </linearGradient>
        <filter id="glow">
            <feGaussianBlur stdDeviation="3" result="coloredBlur"/>
            <feMerge>
                <feMergeNode in="coloredBlur"/>
                <feMergeNode in="SourceGraphic"/>
            </feMerge>
        </filter>
    </defs>

    <!-- Background -->
    <rect width="100%" height="100%" fill="url(#bgGradient)"/>

    <!-- Tree -->
    <path d="M400 80 L450 200 L500 200 L450 250 L500 350 L300 350 L350 250 L300 200 L350 200 Z" 
          fill="#4AE290" opacity="0.8" filter="url(#glow)"/>

    <!-- Family members as abstract shapes -->
    <circle cx="350" cy="250" r="20" fill="#ffffff" opacity="0.9"/>
    <circle cx="400" cy="250" r="25" fill="#ffffff" opacity="0.9"/>
    <circle cx="450" cy="250" r="20" fill="#ffffff" opacity="0.9"/>
    <circle cx="375" cy="300" r="15" fill="#ffffff" opacity="0.9"/>
    <circle cx="425" cy="300" r="15" fill="#ffffff" opacity="0.9"/>

    <!-- Recycling symbol -->
    <g transform="translate(200,250) scale(0.5)" fill="#4AE290" opacity="0.8">
        <path d="M0,-50 L25,0 L-25,0 Z"/>
        <path d="M43.3,25 L-6.7,25 L18.3,-25 Z" transform="rotate(120)"/>
        <path d="M43.3,25 L-6.7,25 L18.3,-25 Z" transform="rotate(240)"/>
    </g>

    <!-- Solar panel -->
    <g transform="translate(600,250)">
        <rect x="-40" y="-40" width="80" height="80" fill="#1A2332" stroke="#4AE290" stroke-width="2"/>
        <line x1="-40" y1="-13.3" x2="40" y2="-13.3" stroke="#4AE290" stroke-width="1"/>
        <line x1="-40" y1="13.3" x2="40" y2="13.3" stroke="#4AE290" stroke-width="1"/>
        <line x1="-13.3" y1="-40" x2="-13.3" y2="40" stroke="#4AE290" stroke-width="1"/>
        <line x1="13.3" y1="-40" x2="13.3" y2="40" stroke="#4AE290" stroke-width="1"/>
    </g>
</svg>
