<?xml version="1.0" encoding="UTF-8"?>
<svg width="800" height="400" viewBox="0 0 800 400" fill="none" xmlns="http://www.w3.org/2000/svg">
    <!-- Background with subtle gradient -->
    <rect width="800" height="400" fill="url(#paint0_linear)"/>
    
    <!-- Kitchen Counter -->
    <path d="M200 150L600 150L600 300L200 300Z" fill="#1A2332" stroke="#4AE290" stroke-width="4"/>
    
    <!-- Kitchen Cabinet -->
    <rect x="250" y="180" width="100" height="80" fill="#0B1321" stroke="#4AE290" stroke-width="2"/>
    <circle cx="340" cy="220" r="5" fill="#4AE290"/> <!-- Cabinet Handle -->
    
    <!-- Energy-Efficient Appliance -->
    <rect x="400" y="180" width="150" height="100" fill="#1A2332" stroke="#4AE290" stroke-width="3"/>
    <circle cx="450" cy="220" r="20" fill="none" stroke="#4AE290" stroke-width="2"/> <!-- Control Dial -->
    <path d="M440 220L460 220M450 210L450 230" stroke="#4AE290" stroke-width="2"/> <!-- Power Symbol -->
    
    <!-- Energy Rating -->
    <path d="M580 180L600 160L620 180" stroke="#4AE290" stroke-width="3"/>
    <path d="M580 200L600 180L620 200" stroke="#4AE290" stroke-width="3"/>
    
    <!-- CO2 Molecules -->
    <circle cx="200" cy="100" r="10" fill="#4AE290" opacity="0.6"/>
    <circle cx="220" cy="100" r="6" fill="#4AE290" opacity="0.6"/>
    <circle cx="600" cy="100" r="10" fill="#4AE290" opacity="0.6"/>
    <circle cx="620" cy="100" r="6" fill="#4AE290" opacity="0.6"/>
    
    <!-- Energy Sparkles -->
    <path d="M180 150L190 170L200 150L190 130L180 150Z" fill="#4AE290"/>
    <path d="M600 250L610 270L620 250L610 230L600 250Z" fill="#4AE290"/>
    
    <!-- Decorative Elements -->
    <circle cx="150" cy="150" r="20" fill="#1A2332" opacity="0.5"/>
    <circle cx="650" cy="250" r="15" fill="#1A2332" opacity="0.5"/>
    
    <!-- Gradient Definition -->
    <defs>
        <linearGradient id="paint0_linear" x1="0" y1="0" x2="800" y2="400" gradientUnits="userSpaceOnUse">
            <stop offset="0" stop-color="#0B1321"/>
            <stop offset="1" stop-color="#1A2332"/>
        </linearGradient>
    </defs>
</svg>
