<?xml version="1.0" encoding="UTF-8"?>
<svg width="800" height="400" viewBox="0 0 800 400" fill="none" xmlns="http://www.w3.org/2000/svg">
    <!-- Background with subtle gradient -->
    <rect width="800" height="400" fill="url(#paint0_linear)"/>
    
    <!-- Clock Icon -->
    <circle cx="400" cy="200" r="120" fill="#1A2332" opacity="0.9"/>
    <circle cx="400" cy="200" r="110" stroke="#4AE290" stroke-width="4"/>
    
    <!-- Clock Hands -->
    <line x1="400" y1="200" x2="400" y2="120" stroke="#4AE290" stroke-width="4" stroke-linecap="round"/>
    <line x1="400" y1="200" x2="460" y2="200" stroke="#4AE290" stroke-width="4" stroke-linecap="round"/>
    
    <!-- Quick Win Stars -->
    <path d="M600 150L612 162L624 150L612 138L600 150Z" fill="#4AE290"/>
    <path d="M180 250L192 262L204 250L192 238L180 250Z" fill="#4AE290"/>
    <path d="M500 300L512 312L524 300L512 288L500 300Z" fill="#4AE290"/>
    
    <!-- Lightning Bolt -->
    <path d="M300 150L320 180L300 210L340 180L300 150Z" fill="#4AE290"/>
    
    <!-- Decorative Circles -->
    <circle cx="650" cy="100" r="20" fill="#1A2332" opacity="0.5"/>
    <circle cx="150" cy="300" r="15" fill="#1A2332" opacity="0.5"/>
    
    <!-- Gradient Definition -->
    <defs>
        <linearGradient id="paint0_linear" x1="0" y1="0" x2="800" y2="400" gradientUnits="userSpaceOnUse">
            <stop offset="0" stop-color="#0B1321"/>
            <stop offset="1" stop-color="#1A2332"/>
        </linearGradient>
    </defs>
</svg>
