<?xml version="1.0" encoding="UTF-8"?>
<svg width="800" height="400" viewBox="0 0 800 400" fill="none" xmlns="http://www.w3.org/2000/svg">
    <!-- Background with gradient -->
    <defs>
        <linearGradient id="bg-gradient" x1="0" y1="0" x2="800" y2="400">
            <stop offset="0%" style="stop-color:#1A2332"/>
            <stop offset="100%" style="stop-color:#0B1321"/>
        </linearGradient>
        <!-- Glow effect -->
        <filter id="glow">
            <feGaussianBlur stdDeviation="2" result="coloredBlur"/>
            <feMerge>
                <feMergeNode in="coloredBlur"/>
                <feMergeNode in="SourceGraphic"/>
            </feMerge>
        </filter>
    </defs>

    <!-- Background -->
    <rect width="800" height="400" fill="url(#bg-gradient)"/>

    <!-- Grid lines -->
    <g stroke="#4AE290" stroke-opacity="0.2">
        <line x1="100" y1="50" x2="700" y2="50" />
        <line x1="100" y1="150" x2="700" y2="150" />
        <line x1="100" y1="250" x2="700" y2="250" />
        <line x1="100" y1="350" x2="700" y2="350" />
        <line x1="100" y1="50" x2="100" y2="350" />
        <line x1="250" y1="50" x2="250" y2="350" />
        <line x1="400" y1="50" x2="400" y2="350" />
        <line x1="550" y1="50" x2="550" y2="350" />
        <line x1="700" y1="50" x2="700" y2="350" />
    </g>

    <!-- Energy usage graph -->
    <g filter="url(#glow)">
        <!-- Main graph line -->
        <path d="M100,200 C250,150 400,250 550,100 S700,150 700,150" 
              stroke="#4AE290" 
              stroke-width="3" 
              fill="none"
              stroke-linecap="round"/>

        <!-- Data points -->
        <circle cx="100" cy="200" r="6" fill="#4AE290"/>
        <circle cx="250" cy="150" r="6" fill="#4AE290"/>
        <circle cx="400" cy="250" r="6" fill="#4AE290"/>
        <circle cx="550" cy="100" r="6" fill="#4AE290"/>
        <circle cx="700" cy="150" r="6" fill="#4AE290"/>
    </g>

    <!-- House icon with energy symbol -->
    <g transform="translate(400,80)" filter="url(#glow)">
        <!-- House -->
        <path d="M-40,-20 L0,-50 L40,-20 L40,30 L-40,30 Z" 
              stroke="#4AE290" 
              stroke-width="2" 
              fill="none"/>
        <!-- Energy bolt -->
        <path d="M-10,0 L0,-15 L10,-5 L0,15 Z" 
              fill="#4AE290"/>
    </g>

    <!-- Decorative elements -->
    <g filter="url(#glow)">
        <circle cx="150" cy="350" r="4" fill="#4AE290" opacity="0.5"/>
        <circle cx="650" cy="50" r="4" fill="#4AE290" opacity="0.5"/>
        <path d="M720,200 L740,220 L760,200 L740,180 Z" fill="#4AE290" opacity="0.7"/>
        <path d="M40,150 L60,170 L80,150 L60,130 Z" fill="#4AE290" opacity="0.7"/>
    </g>
</svg>
